<?xml version="1.0" encoding="UTF-8" standalone="no"?>
<!-- Created with Inkscape (http://www.inkscape.org/) -->

<svg
   width="500"
   height="500"
   viewBox="0 0 132.29167 132.29167"
   version="1.1"
   id="svg1"
   inkscape:version="1.4.3 (0d15f75, 2025-12-25)"
   xml:space="preserve"
   sodipodi:docname="logo.svg"
   inkscape:export-filename="logo.png"
   inkscape:export-xdpi="96"
   inkscape:export-ydpi="96"
   xmlns:inkscape="http://www.inkscape.org/namespaces/inkscape"
   xmlns:sodipodi="http://sodipodi.sourceforge.net/DTD/sodipodi-0.dtd"
   xmlns="http://www.w3.org/2000/svg"
   xmlns:svg="http://www.w3.org/2000/svg"><sodipodi:namedview
     id="namedview1"
     pagecolor="#ffffff"
     bordercolor="#000000"
     borderopacity="0.25"
     inkscape:showpageshadow="2"
     inkscape:pageopacity="0.0"
     inkscape:pagecheckerboard="0"
     inkscape:deskcolor="#d1d1d1"
     inkscape:document-units="px"
     inkscape:zoom="1.167"
     inkscape:cx="328.19195"
     inkscape:cy="223.22194"
     inkscape:window-width="2560"
     inkscape:window-height="1369"
     inkscape:window-x="1912"
     inkscape:window-y="-8"
     inkscape:window-maximized="1"
     inkscape:current-layer="layer1" /><defs
     id="defs1" /><g
     inkscape:label="Layer 1"
     inkscape:groupmode="layer"
     id="layer1"><text
       xml:space="preserve"
       style="font-size:176.389px;line-height:1.2;font-family:HGPSoeiKakupoptai;-inkscape-font-specification:HGPSoeiKakupoptai;text-align:start;writing-mode:lr-tb;direction:ltr;text-anchor:start;fill:#c9c9c9;stroke:#c9c9c9;stroke-width:3.22024"
       x="139.59254"
       y="19.087402"
       id="text1"><tspan
         sodipodi:role="line"
         id="tspan1"
         style="stroke-width:3.22024"
         x="139.59254"
         y="19.087402" /></text><g
       id="g9"
       transform="matrix(1.4377304,0,0,1.4377304,-28.95748,-30.999168)"><path
         style="fill:#dab5d4;fill-opacity:1;stroke:#be97c4;stroke-width:1.5875;stroke-linejoin:round;stroke-dasharray:none;stroke-opacity:1"
         d="m 63.16447,42.483718 c -5.224802,-0.408396 -6.885799,-0.984438 -9.699111,0.72142 -2.813313,1.705858 -4.508377,5.179112 -5.851532,7.374533 -1.343156,2.195422 -2.554369,3.32403 -4.088055,3.607107 -1.533686,0.283078 -2.210503,0.117072 -3.687266,-1.042052 -1.476763,-1.159124 -2.94243,-3.935742 -4.488846,-5.049952 -1.546416,-1.11421 -4.091447,-1.341966 -6.172163,-0.160316 -2.080716,1.18165 -3.493497,3.932736 -4.007898,7.134058 -0.514401,3.201322 2.17209,10.292312 3.52695,13.065748 1.35486,2.773436 3.096597,7.221915 3.046001,10.741166 -0.0506,3.519251 -3.804795,9.215641 -6.412636,13.546696 -2.607842,4.331055 -2.059909,8.382714 -1.042053,10.500694 1.017855,2.11798 4.26317,4.63862 7.615007,4.88963 3.351837,0.25102 7.346389,-2.00484 13.386379,-1.44284 6.03999,0.562 13.468229,6.03294 21.001383,6.01185 7.533154,-0.0211 15.123303,-5.36966 21.001386,-5.77138 5.87808,-0.40172 12.199887,2.85357 16.191904,1.04206 3.99202,-1.81151 4.86606,-6.04882 4.08806,-10.099905 -0.778,-4.051084 -6.8876,-8.163901 -7.45469,-13.947485 -0.567087,-5.783584 8.0455,-12.58609 5.29042,-17.955382 C 102.65263,60.280076 94.592226,62.859292 90.257856,60.519259 85.923498,58.179226 87.710714,52.127068 83.123801,48.495565 78.536888,44.864062 68.389272,42.892114 63.16447,42.483718 Z"
         id="path1"
         sodipodi:nodetypes="zzzzzzzzzzzzzzzzzzzzzzz" /><path
         style="fill:#bea0b8;fill-opacity:1;stroke:none;stroke-width:1.5875;stroke-linejoin:round;stroke-dasharray:none;stroke-opacity:1"
         d="m 26.75307,61.894818 c 0,0 3.710129,4.566868 6.574907,10.202441 2.864779,5.635572 -1.270951,10.324399 -3.346121,14.491056 -2.07517,4.166658 -5.382633,6.934073 -5.382633,6.934073 0,0 5.210721,-7.834641 6.574906,-13.716617 C 32.538315,73.923795 26.75307,61.894818 26.75307,61.894818 Z"
         id="path2"
         sodipodi:nodetypes="czzczc" /><path
         id="path4"
         style="fill:#bea0b8;fill-opacity:1;stroke:none;stroke-width:1.5875;stroke-linejoin:round;stroke-dasharray:none;stroke-opacity:1"
         d="m 27.013339,90.498354 -2.3797,3.225643 c -1.79608,3.827767 -1.260779,7.294833 -0.345715,9.198923 1.017855,2.11798 4.263202,4.63861 7.615039,4.88962 3.351837,0.25102 7.346273,-2.0048 13.386263,-1.4428 6.03999,0.562 13.468149,6.03261 21.001303,6.01152 7.533154,-0.0211 15.12322,-5.36951 21.001303,-5.77123 5.87808,-0.40172 12.200276,2.85383 16.192298,1.04232 3.57379,-1.62173 4.64842,-5.18781 4.27622,-8.823755 -3e-5,-3.37e-4 3e-5,-6.96e-4 0,-0.001 l -3.39462,-6.164999 c 0,0 2.27166,5.80797 1.603,8.016044 -0.66866,2.20808 -0.7457,2.96691 -4.00803,4.00751 -3.26233,1.0406 -8.321447,-2.97418 -14.668868,-2.4846 -6.347421,0.48958 -14.955307,7.59564 -22.123198,7.37422 -7.167891,-0.22142 -12.916132,-6.8773 -18.276405,-7.37422 -5.360273,-0.49692 -8.808746,2.97034 -12.343949,2.4846 -3.535203,-0.48574 -6.244309,-1.28075 -7.855852,-4.00751 -1.611543,-2.726762 0.320911,-10.180253 0.320911,-10.180253 z"
         sodipodi:nodetypes="ccssssssscczzzzzzzc" /><path
         style="fill:none;fill-opacity:1;stroke:#be97c4;stroke-width:1.5875;stroke-linejoin:round;stroke-dasharray:none;stroke-opacity:1"
         d="m 63.16447,42.483718 c -5.224802,-0.408396 -6.885799,-0.984438 -9.699111,0.72142 -2.813313,1.705858 -4.508377,5.179112 -5.851532,7.374533 -1.343156,2.195422 -2.554369,3.32403 -4.088055,3.607107 -1.533686,0.283078 -2.210503,0.117072 -3.687266,-1.042052 -1.476763,-1.159124 -2.94243,-3.935742 -4.488846,-5.049952 -1.546416,-1.11421 -4.091447,-1.341966 -6.172163,-0.160316 -2.080716,1.18165 -3.493497,3.932736 -4.007898,7.134058 -0.514401,3.201322 2.17209,10.292312 3.52695,13.065748 1.35486,2.773436 3.096597,7.221915 3.046001,10.741166 -0.0506,3.519251 -3.804795,9.215641 -6.412636,13.546696 -2.607842,4.331055 -2.059909,8.382714 -1.042053,10.500694 1.017855,2.11798 4.26317,4.63862 7.615007,4.88963 3.351837,0.25102 7.346389,-2.00484 13.386379,-1.44284 6.03999,0.562 13.468229,6.03294 21.001383,6.01185 7.533154,-0.0211 15.123303,-5.36966 21.001386,-5.77138 5.878083,-0.40172 12.199887,2.85357 16.191904,1.04206 3.99202,-1.81151 4.86606,-6.04882 4.08806,-10.099905 -0.778,-4.051084 -6.8876,-8.163901 -7.45469,-13.947485 -0.567087,-5.783584 8.0455,-12.58609 5.29042,-17.955382 C 102.65263,60.280076 94.592222,62.859292 90.25786,60.519259 85.923498,58.179226 87.710714,52.127068 83.123801,48.495565 78.536888,44.864062 68.389272,42.892114 63.16447,42.483718 Z"
         id="path3"
         sodipodi:nodetypes="zzzzzzzzzzzzzzzzzzzzzzz" /><path
         style="fill:#372e2e;fill-opacity:1;stroke:#000000;stroke-width:1.5875;stroke-linejoin:round;stroke-dasharray:none;stroke-opacity:1"
         d="m 58.153921,30.720687 -5.441302,13.376537 c 0,0 3.255398,5.724725 16.040508,10.259124 12.78511,4.534398 18.421075,1.076923 18.421075,1.076923 l 5.554662,-14.850222"
         id="path5"
         sodipodi:nodetypes="cczcc" /><path
         style="fill:#372e2e;fill-opacity:1;stroke:#000000;stroke-width:1.5875;stroke-linejoin:round;stroke-dasharray:none;stroke-opacity:1"
         d="M 50.900304,25.650546 72.863582,42.243244 102.28156,41.121033 79.098814,24.074893 Z"
         id="path6"
         sodipodi:nodetypes="ccccc" /><path
         style="fill:none;fill-opacity:1;stroke:#ffbb00;stroke-width:2.11667;stroke-linecap:round;stroke-linejoin:round;stroke-dasharray:none;stroke-opacity:1"
         d="m 76.97176,31.967652 18.137675,10.202442 v 8.842119"
         id="path7" /><circle
         style="fill:#ffbb00;fill-opacity:1;stroke:none;stroke-width:2.73118;stroke-linecap:round;stroke-linejoin:round;stroke-dasharray:none;stroke-opacity:1"
         id="path8"
         cx="95.147499"
         cy="51.140778"
         r="2.5650547" /><path
         style="fill:#ffbb00;fill-opacity:1;stroke:#ffbb00;stroke-width:1.96025;stroke-linecap:round;stroke-linejoin:round;stroke-dasharray:none;stroke-opacity:1"
         d="m 93.019219,59.211333 2.242162,-8.277327 2.388041,8.277327 c 0,0 -1.18394,0.74069 -2.388041,0.729489 -1.2041,-0.0112 -2.242162,-0.729489 -2.242162,-0.729489 z"
         id="path9"
         sodipodi:nodetypes="ccczc" /><ellipse
         style="fill:#ffbb00;fill-opacity:1;stroke:none;stroke-width:2.05946;stroke-linecap:round;stroke-linejoin:round;stroke-dasharray:none;stroke-opacity:1"
         id="circle9"
         cx="82.488029"
         cy="10.74443"
         rx="2.3274202"
         ry="1.6074113"
         transform="rotate(15)" /></g></g></svg>
